<svg version="1.2" xmlns="http://www.w3.org/2000/svg" viewBox="0 0 242 67" width="242" height="67">
	<title>Kit_Logo</title>
	<style>
		tspan { white-space:pre } 
		.s0 { fill: #ffffff } 
		.s1 { fill: #b6a44d } 
		.s2 { fill: #7f52f5 } 
		.s3 { fill: #e5e3c9 } 
		.s4 { fill: #343158 } 
		.s5 { fill: #96adbc } 
		.s6 { fill: #dea5b8 } 
		.s7 { fill: #c87e5e } 
		.s8 { fill: #967d00 } 
		.t9 { font-size: 24px;fill: #452932;font-weight: 500;font-family: "Sainte Colombe" } 
		.t10 { font-size: 18px;fill: #452932;font-weight: 500;font-family: "Sainte Colombe" } 
		.t11 { font-size: 18px;text-transform: uppercase;fill: #452932;font-weight: bold;font-family: "Fellix" } 
		.t12 { font-size: 13px;text-transform: uppercase;fill: #e5e3c9;font-weight: bold;font-family: "Fellix" } 
		.s13 { fill: #3c422d } 
		.t14 { font-size: 24px;text-transform: uppercase;fill: #8d4320;font-weight: bold;font-family: "Fellix" } 
		.t15 { font-size: 18px;text-transform: uppercase;fill: #8d4320;font-family: "F HPhemister Display Test" } 
		.t16 { font-size: 18px;text-transform: uppercase;fill: #8d4320;font-weight: bold;font-family: "Fellix" } 
	</style>
	<g id="_Artboards_">
		<path id="Plan de travail 1" class="s0" d="m-200-803h1920v-1080h-1920z"/>
	</g>
	<g id="Calque 1">
		<path id="&lt;Path&gt;" class="s1" d="m1678.95 292.84h-577.9c-8.87 0-16.05-7.19-16.05-16.05v-478.62c0-8.87 7.18-16.05 16.05-16.05h577.9c8.87 0 16.05 7.18 16.05 16.05v478.62c0 8.86-7.18 16.05-16.05 16.05z"/>
		<path id="&lt;Path&gt;" class="s2" d="m1048.95 292.22h-577.9c-8.87 0-16.05-7.18-16.05-16.04v-478.63c0-8.86 7.18-16.05 16.05-16.05h577.9c8.87 0 16.05 7.19 16.05 16.05v478.63c0 8.86-7.18 16.04-16.05 16.04z"/>
		<g id="&lt;Group&gt;">
			<path id="&lt;Path&gt;" class="s3" d="m39.7 30.79c-4.56-3.93-14.11-6.76-17.55-10.94-1.23-1.84 1.15-2.44 2.68-2.39 5.07-0.18 12.27 4.11 16 4.77 3.73 0.6 2.27-4.36 1.61-7.45-1.35-5.1-3.09-9.29-7.68-11.12-6.13-2.07-13.36-1.85-19.52-0.39-13.94 2.8-16.76 18.82-8.83 28.86 2.93 3.81 6.79 6.39 11.04 8.83 3.07 2.13 11.73 5.24 11.14 8.86-3.25 3.11-10.03-0.47-13.63-2.09-4.97-2.23-9.26-6.43-12.19-5.75-2.09 1.79-0.87 5.7-0.82 8.34 0.42 3.84 1.02 8.52 3.77 10.98l0.21 0.19c8.17 5.27 27.83 5.25 35.76-1.27 9.42-7.13 7.49-22.9-1.99-29.43z"/>
			<path id="&lt;Path&gt;" class="s3" d="m95.57 32.95c0.47-7.46 2.37-11.93-4.92-12.4-4.46-0.22-9.86-0.77-14.05 1.01-2.91 1.49-1.84 5.72-1.67 11.05 0.14 3.42 0.24 7.48-0.39 10.65-0.59 2.94-1.67 4.8-2.66 4.31-2.03-1.13-2.28-7.82-2.17-10.85-0.32-4.94 2.06-13.6-1.55-15.16-2.7-1.31-5.95-1.14-8.99-1.23-3.07 0.09-6.89-0.08-9.21 1.47-2.3 1.62-1.06 5.79-0.8 10.67 0.42 6.05 0.07 12.51 0.55 18.24l0.04 0.35c0.12 10.62 10.32 17.25 19.57 11.33 1.96-1.19 3.57-3.7 5.09-4.93 0.47-0.3 0.8-0.16 1.1 0.3 2.55 7.05 9.58 7.39 16.2 6.39 6.99-1.09 3.65-7.49 3.78-13.71-0.22-5.81-0.23-11.68 0.08-17.49z"/>
			<path id="&lt;Path&gt;" class="s3" d="m188.36 22.57c-4.99-4.71-14.14-3.72-17.98 1.86-1.37 1.82-2.15 3.39-2.72 3.49-0.31 0.08-0.54-0.21-0.77-0.74-0.93-3.46-3.39-6.44-7.29-6.59-3.58-0.36-8.29-0.26-10.67 0.5-0.85 0.27-1.6 0.72-2.04 1.44-1.12 1.89 0.01 5.76 0.18 10q0.46 9.85-0.01 19.7c-0.06 4.93-1.85 8.86 0.47 10.84 2.24 1.55 7.12 1.25 10.35 1.31 3.29-0.14 6.12 0.18 8.75-1.31 2.32-1.49 1.07-5.83 0.97-10.87-0.15-4.8-0.55-11.93 1.94-14.98 2.75-2.67 3.61 7.59 3.3 10.67l-0.01 0.37c0.34 4.33-1.6 12.26 0.41 14.42 1.99 1.74 4.86 1.5 7.48 1.67 3.64-0.06 8.62 0.42 11.73-1.05 0.92-0.53 1.34-1.31 1.45-2.43 0.12-3.06-0.91-8.67-0.81-12.64-0.64-8.66 1.73-18.97-4.73-25.66z"/>
			<path id="&lt;Compound Path&gt;" fill-rule="evenodd" class="s3" d="m239.99 63.01c-2.98 1.77-8.78 1.82-13.01 0.58-2.25-0.57-4.17-2.15-6.39-2.52l-0.14-0.01c-1.25-0.21-4.37 1.48-6.65 2.51-3.47 1.53-7.67 1.75-11.23 0.51-8.62-2.61-10.43-14.64-4.47-20.66 3.83-4.28 10.06-5.65 15.46-6.7 2.27-0.67 4.23-0.56 5.08-2.21 0.2-1.21-3.4-2.52-7.38-1.95-3.83 0.33-8.62 2.73-11.65 3.95-6.46 2.68-1.4-9.31 0.9-12.6 3.09-4.58 8.11-4.55 13.49-4.97 7.38-0.19 16.51-1.09 22.19 4.31 6.9 8.41 3.44 22.2 5.15 32.81 0.25 3.19 0.65 5.47-1.35 6.95zm-19.8-22.18c-1.32-1.15-3.36 1.6-3.92 3.38-0.81 2.86-2.19 8.65 0.91 10.32 2.55 0.21 3.29-4.63 3.32-6.47l0.01-0.28c-0.09-1.63 0.33-5.45-0.32-6.95z"/>
			<path id="&lt;Path&gt;" class="s3" d="m139.49 22.57c-4.99-4.71-14.14-3.72-17.98 1.86-1.37 1.82-2.15 3.39-2.72 3.49-0.31 0.08-0.54-0.21-0.77-0.74-0.93-3.46-3.38-6.44-7.29-6.59-3.58-0.36-8.29-0.26-10.66 0.5-0.85 0.27-1.61 0.72-2.04 1.44-1.12 1.89 0 5.76 0.17 10q0.47 9.85 0 19.7c-0.07 4.93-1.86 8.86 0.46 10.84 2.24 1.55 7.12 1.25 10.35 1.31 3.29-0.14 6.12 0.18 8.75-1.31 2.33-1.49 1.07-5.83 0.98-10.87-0.16-4.8-0.55-11.93 1.93-14.98 2.76-2.67 3.62 7.59 3.3 10.67v0.37c0.33 4.33-1.61 12.26 0.41 14.42 1.98 1.74 4.85 1.5 7.48 1.67 3.63-0.06 8.61 0.42 11.72-1.05 0.92-0.53 1.34-1.31 1.45-2.43 0.12-3.06-0.91-8.67-0.81-12.64-0.63-8.66 1.74-18.97-4.73-25.66z"/>
		</g>
		<path id="&lt;Compound Path&gt;" fill-rule="evenodd" class="s4" d="m886.64 107.16c-3.8 6.6-19.06 18.54-24.21 25.96-5.53 7.49-3.79 23.53-8.18 32.6-10.02 18.91-25.31-3.34-34.95-11.55-5.41-3.82-7.45-4.28-12.95-6.96-5.51-2.45-12.62-0.68-17.06-3.12-6.46-2.38-16.61-11.81-8.57-18.28 8.99-7.35 23.04-17.23 26.82-30.03 6.6-32.72 13.31-40.51 37.19-11.99 8.74 10.97 39.29 3.6 41.86 22.26zm-30.63-13.96h0.01l0.17-0.05zm25.96 17.68l0.01-0.05q-0.07 0.07-0.15 0.13 0.07-0.04 0.14-0.08zm-10.79-14.22q0 0-0.01 0 0.01 0 0.01 0z"/>
		<g id="&lt;Group&gt;">
			<path id="&lt;Path&gt;" class="s4" d="m712.51 162.75c0.61 0.03 0.31 0.01-0.22-0.07z"/>
			<path id="&lt;Compound Path&gt;" fill-rule="evenodd" class="s4" d="m731.78 154.47l-0.18 0.52c-5.27 12.11-21.71 8.94-29.55 3.09-2.25-0.14-2.72 2.89-3.77 4.65-2.11 4.93-7.16 9.31-10.43 11.06-19.71 4.88-24.84-5.47-24.68-15.53-1.75 0.08-4.94 2.27-7.16 2.69-14.1 3.86-27.51-13.89-20.93-26.6 2.26-4.69 9.39-5.93 9.92-8.31 0.1-1.06-0.2-2.23-0.58-3.22-7.57-14.85 8.1-28.76 22.16-25.12 1.88 0.39 3.54 1.57 4.2-0.73 2.86-8.35 14.53-17.78 23.74-14.14 2.14 1.39 4.23 1.97 5.97 4.61 0.89 1.54 2.26 4.27 4.13 4.99 1.81 0.89 4.57 0.01 7.71-0.14 7.41 0.02 11.72 4.43 15.26 10.51 6.89 12.98 0.65 24.31-12.1 24.93 10.73 3.43 18.28 15.04 16.29 26.74zm-66.46 0.68q-0.01-0.01-0.01-0.02-0.01 0.01-0.01 0.02zm61.26-19.19l-0.07-0.09q0.03 0.04 0.05 0.07 0.01 0.01 0.02 0.02zm-0.08-0.12l0.01 0.03q0-0.01-0.01-0.03z"/>
		</g>
		<path id="&lt;Compound Path&gt;" class="s4" d="m832.53-82.33c-12.88-1.15-23.92 0.22-35.33 15.27-4.17 5.5-7.55 15.08-7.93 22.2-2.73 37.66 54.35 57.86 75.19 26.19 5.56-8.75 6.44-10.27 10.44-26.64 4-16.36-29.48-35.87-42.37-37.02z"/>
		<path id="&lt;Path&gt;" class="s4" d="m701.98 27.98c-1.17 7.69-1.73 23.02-9.53 12.62-2.95-3.9-6.53-10.35-10.75-16.49-5.61-8.92-14.86-13.17-13.2-24.02-3.06-10.51-18.87-12.38-25.09-20.02-7.65-7.72 2.16-12.32 8.91-14.49 10.9-6.05-2.94-10.97-9-18.28-4.42-4.21-8.73-10.99-5.68-15.67 3.43-3.69 7.99-3.43 11.23-7 0.83-2.75 0.28-2.73-0.39-10.35 10.72-33.57 36.56-22.95 59.17-5.06 3.44 2.3 6.94 5.53 9.24 9 5.63 8.47-14.93 24.9-0.06 25.7 7.29 0.46 14.22 1.27 11.35 11.24-2.69 9.46-14.14 20.01-15.65 25.55-1.75 3.94 5.2 3.89 8.64 7.28 7.18 11.24-18.11 32.64-18.77 38.32z"/>
		<path id="&lt;Path&gt;" class="s5" d="m415.95-234.97h-577.9c-8.87 0-16.05-7.19-16.05-16.05v-478.63c0-8.86 7.18-16.04 16.05-16.04h577.9c8.87 0 16.05 7.18 16.05 16.04v478.63c0 8.86-7.18 16.05-16.05 16.05z"/>
		<path id="&lt;Path&gt;" class="s6" d="m1678.95-231.97h-577.9c-8.87 0-16.05-7.19-16.05-16.05v-478.63c0-8.86 7.18-16.04 16.05-16.04h577.9c8.87 0 16.05 7.18 16.05 16.04v478.63c0 8.86-7.18 16.05-16.05 16.05z"/>
		<path id="&lt;Path&gt;" class="s7" d="m1048.95-232.59h-577.9c-8.87 0-16.05-7.18-16.05-16.04v-478.63c0-8.86 7.18-16.05 16.05-16.05h577.9c8.87 0 16.05 7.19 16.05 16.05v478.63c0 8.86-7.18 16.04-16.05 16.04z"/>
		<path id="&lt;Compound Path&gt;" fill-rule="evenodd" class="s3" d="m154.98-331.09c-3.66-4.87-8.34-11.42-13.01-16.31-4.87-6.09-14.1-9.67-21.66-5.79-7.02 4.31-11.14 10.38-17.23 16.39-22.12 25.37-28.55 10.62-34.37-14.98-5.78-19.45-22.05-18.28-31.68-14.9-8.32 2.93-27.32 16.2-38.1 8.43-2.23-1.83-2.27-2.15-2.43-4.58-0.12-3.67 1.71-9.97 2.69-13.39l6.24-19.97c2.84-16.59-10.94-18.16-23.59-18.74-5.42-0.27-17.85-0.56-21.2-1.33-2.1-0.36 6.28 0.63 3.7 0.27-3.05-0.45-10.28-1.61-12.67-4.41-9.55-13.19 13.71-24.63 21.82-34.53 3.08-3.14 5.02-6.22 6.96-8.39 0.01 0.27-0.04 0.58-0.14 0.84 3.39-6.37 2.81-12.98-3.54-18.78-4.61-4.79-7.54-5.74-11.92-9.83-2.01-1.71 1.57 1.05-0.5-0.78-6.12-5.4-15.11-11.91-14.49-21.43 2.85-13.68 23.21-13.15 34.26-16.09 25.41-3.93 19.15-25.58 13.1-43.59-3.3-9.96-6-34.18 11.95-29.53 12.52 2.83 23.59 14.01 36.84 12.89 12.77-3.29 13.2-21.09 15.32-31.68 0.99-8.48 1.93-12.63 5.24-21.06 18.18-24.87 38.98 33.37 49.27 32.54 10.54-0.85 21.12-16.51 21.12-16.51 3.25-3.62 8.23-12.31 13.33-15.77 3.13-2.23 6.45-3.83 6.95-3.9 0.5-0.08 0.57-0.08 0.57-0.08 12.13 1.18 12.49 11.41 14.89 21.74l0.2 1.09c6.59 44.13 13.07 38.48 52.44 20.9 28.97-7.23 22.88 13.54 16.1 32.17-0.86 2.33-0.83 2.19-1.16 3-0.22 0.52-0.37 0.79-0.35 0.63-0.05-0.12 0.38-1.48 0.03-0.7-0.78 1.94-2.03 5.56-2.25 6.74-0.11 1.48-1.05 6.76-1.11 7.68 0 0.18-0.18-0.01 0.26 1.73 2.67 10.35 15.55 12.92 24.38 13.77 9.91 1.99 26.3 2.23 31.78 12.65 0.99 2.4 0.85 5.13-0.18 7.57-7.01 14.24-26.26 17.71-31.53 31.96-1.07 2.67-0.6 8.44 0.47 11.06-0.38-0.82-1.02-2.15-0.95-1.95q0.44 1.14 1.11 2.29 0.05 0.1 0.1 0.19-0.02-0.04-0.05-0.11c5.6 9.56 22.3 20.43 28.23 30.83l0.35 0.61c4.89 9.09-2.2 17.43-11.79 17.91-11.88 1.99-32.99-2.35-38.06 12.68-4.85 17.02 15.79 39.67 2.7 54.39-1.55 1.19-3.93 1.08-5.82 1.04-15.66-2.44-27.73-19.39-44.1-14.25-1.32 0.58-1.98 1.01-2.37 1.19-0.45 0.29 0.58-0.64 0.11-0.27-6.35 5.81-7.45 15.07-9.16 23.93-1.05 14.49-10.1 35.54-26.1 16.15zm107.01-142.58q-0.02-0.04-0.05-0.07-0.08-0.17-0.15-0.35 0.12 0.26 0.2 0.42zm-25.12-86.74q0.03-0.11 0.06-0.2-0.02 0.05-0.05 0.15-0.01 0.02-0.01 0.05zm0.11-0.36q-0.03 0.09-0.05 0.16 0.02-0.07 0.05-0.16z"/>
		<g id="&lt;Group&gt;">
			<path id="&lt;Path&gt;" class="s5" d="m67.94-493.01c-2.99-2.58-9.24-4.43-11.5-7.17-0.81-1.2 0.75-1.59 1.75-1.56 3.33-0.12 8.05 2.69 10.49 3.12 2.44 0.39 1.48-2.85 1.05-4.88-0.88-3.34-2.02-6.09-5.03-7.28-4.01-1.36-8.75-1.22-12.79-0.26-9.13 1.84-10.97 12.33-5.78 18.9 1.92 2.5 4.45 4.19 7.23 5.79 2.01 1.39 7.68 3.43 7.3 5.8-2.13 2.04-6.57-0.3-8.93-1.36-3.25-1.47-6.06-4.22-7.99-3.77-1.36 1.17-0.56 3.73-0.53 5.46 0.28 2.51 0.67 5.58 2.47 7.19l0.14 0.13c5.35 3.45 18.22 3.44 23.42-0.83 6.17-4.68 4.91-15.01-1.3-19.28z"/>
			<path id="&lt;Path&gt;" class="s5" d="m104.53-491.6c0.31-4.88 1.56-7.81-3.22-8.12-2.92-0.14-6.46-0.5-9.2 0.66-1.91 0.98-1.21 3.75-1.1 7.24 0.1 2.24 0.16 4.9-0.26 6.98-0.38 1.92-1.09 3.14-1.73 2.82-1.33-0.74-1.5-5.12-1.43-7.11-0.21-3.23 1.36-8.91-1.01-9.93-1.77-0.86-3.9-0.75-5.89-0.8-2.01 0.06-4.51-0.06-6.03 0.96-1.51 1.06-0.7 3.79-0.53 6.99 0.28 3.96 0.05 8.19 0.37 11.94l0.02 0.24c0.08 6.95 6.76 11.29 12.82 7.42 1.28-0.78 2.34-2.43 3.33-3.23 0.31-0.2 0.53-0.11 0.73 0.19 1.66 4.62 6.27 4.84 10.6 4.19 4.58-0.71 2.4-4.9 2.48-8.98-0.14-3.81-0.15-7.65 0.05-11.46z"/>
			<path id="&lt;Path&gt;" class="s5" d="m165.31-498.4c-3.27-3.08-9.26-2.43-11.78 1.22-0.89 1.19-1.4 2.22-1.78 2.29-0.2 0.05-0.35-0.14-0.5-0.49-0.61-2.26-2.22-4.22-4.78-4.31-2.34-0.24-5.43-0.17-6.98 0.32-0.56 0.18-1.05 0.47-1.34 0.95-0.73 1.24 0.01 3.77 0.11 6.55q0.31 6.45 0 12.9c-0.04 3.23-1.21 5.8 0.31 7.1 1.47 1.02 4.66 0.82 6.78 0.86 2.15-0.09 4.01 0.12 5.73-0.86 1.52-0.98 0.7-3.82 0.64-7.12-0.1-3.14-0.36-7.81 1.27-9.81 1.8-1.75 2.36 4.97 2.16 6.99l-0.01 0.24c0.22 2.84-1.05 8.03 0.27 9.45 1.3 1.14 3.18 0.98 4.9 1.09 2.38-0.04 5.64 0.28 7.68-0.69 0.6-0.34 0.88-0.86 0.95-1.59 0.08-2-0.6-5.68-0.53-8.28-0.42-5.67 1.14-12.42-3.1-16.81z"/>
			<path id="&lt;Compound Path&gt;" fill-rule="evenodd" class="s5" d="m199.13-471.91c-1.95 1.16-5.75 1.2-8.52 0.38-1.47-0.37-2.73-1.41-4.18-1.65h-0.1c-0.82-0.14-2.86 0.97-4.35 1.64-2.28 1-5.03 1.15-7.36 0.34-5.64-1.72-6.83-9.6-2.93-13.54 2.51-2.8 6.59-3.7 10.13-4.39 1.48-0.44 2.77-0.37 3.33-1.44 0.13-0.8-2.23-1.65-4.84-1.28-2.51 0.21-5.64 1.78-7.63 2.58-4.23 1.76-0.91-6.1 0.59-8.25 2.02-3 5.31-2.98 8.84-3.25 4.83-0.13 10.81-0.72 14.53 2.82 4.52 5.51 2.25 14.54 3.38 21.49 0.16 2.09 0.42 3.58-0.89 4.55zm-12.96-14.53c-0.87-0.75-2.21 1.05-2.58 2.22-0.52 1.87-1.43 5.67 0.6 6.76 1.67 0.14 2.16-3.04 2.18-4.24v-0.18c-0.05-1.07 0.22-3.58-0.2-4.56z"/>
			<path id="&lt;Path&gt;" class="s5" d="m133.3-498.4c-3.27-3.08-9.26-2.43-11.78 1.22-0.89 1.19-1.4 2.22-1.78 2.29-0.2 0.05-0.35-0.14-0.5-0.49-0.61-2.26-2.22-4.22-4.78-4.31-2.34-0.24-5.43-0.17-6.98 0.32-0.56 0.18-1.05 0.47-1.34 0.95-0.73 1.24 0.01 3.77 0.11 6.55q0.31 6.45 0 12.9c-0.04 3.23-1.21 5.8 0.31 7.1 1.47 1.02 4.66 0.82 6.78 0.86 2.15-0.09 4.01 0.12 5.73-0.86 1.52-0.98 0.7-3.82 0.64-7.12-0.1-3.14-0.36-7.81 1.27-9.81 1.8-1.75 2.36 4.97 2.16 6.99l-0.01 0.24c0.22 2.84-1.05 8.03 0.27 9.45 1.3 1.14 3.18 0.98 4.9 1.09 2.38-0.04 5.64 0.28 7.68-0.69 0.6-0.34 0.88-0.86 0.95-1.59 0.08-2-0.6-5.68-0.53-8.28-0.41-5.67 1.14-12.42-3.1-16.81z"/>
		</g>
		<path id="&lt;Path&gt;" class="s8" d="m1205.7 194.58c1.97 3.48 5.66 9.85 9.47 11.08 4.35 1.41 11.51-1.84 16.11-3.14 4.44-1.24 7.53-0.29 10.68-5.07 3.64-5.51-2.99-14.27-4.84-19.89-8.96-27.1-17.7-59.13-20.81-87.42-4.21-38.26-6.72-103.44 24.58-131.46 7.9-7.07 16.52-15.44 25.13-21.44 11.23-7.82 40.27-21.69 53.48-25.3 42.88-11.74 77.04-25.18 122.94-16.43 18.91 3.61 34.22 13.53 51.22 20.7 19.08 8.06 34.33 8.82 47.54 27.82 13.1 18.84 22.18 48.69 23.03 71.49 0.99 26.21-0.42 42.33-7.21 67.5-6.22 23.06-12.87 26.87-28.02 43.22-6.6 7.12-11.41 14.23-19.27 20.46-16.74 13.26-52.12 31.57-73.38 32.65-15.72 0.8-31.07-1.89-46.48-3.17-4.64-0.38-9.53 0.4-14.2-0.18-12.03-1.52-39.82-13.07-50.05-19.82-13.13-8.66-24.47-20.44-32.53-33.91-8.9-14.89-8.38-29.11-9.64-45.84-1.55-20.39-2.72-44.6 2.44-64.53 1.84-7.14 23.37-33.49 29.66-38.84 18.04-15.32 35.98-17.89 58.59-20.87 14.41-1.9 24.51-4.47 38.84-0.5 29.89 8.29 66.76 24.2 67.01 60.39 0.07 11.05-1.47 27.41-3.52 38.34-2.5 13.38-6.83 14.93-15.45 23.24-9.42 9.07-15.55 17.68-28.99 21.36-18.27 5-39.32 3.03-57.18-3.14-19.6-6.78-29.3-40.35-24.88-59.05 4.48-18.99 25.6-35.33 45.21-32.52 13.25 1.9 20.52 16.55 9.87 26.29-1.94 1.78-4.3 2.14-5.89 3.35-2.93 2.23-9.43 7.65-11.69 10.24-5.18 5.94-0.27 16.09 4.77 20.59 6.75 6.03 17.19-0.13 23.78-3.68 16.15-8.7 25.45-20.02 27.58-38.87 2.32-20.59-18.59-45.04-38.84-47.37-13.41-1.54-38.91-2.75-50.08 5.03-4.61 3.21-8.39 8.16-12.06 11.92-15.95 16.37-23.92 24.67-25.68 48.97-2.07 28.67 9.44 72.69 38.57 84.72 33.62 13.87 95.76 13.16 124.12-11.76 30.88-27.13 48.48-95.67 31.95-133.36-23.5-53.61-87.96-57.23-138.85-55.74-15.13 0.45-34.51 6.87-48.92 12.04-16.97 6.1-43.02 28.31-53.75 42.84-16.02 21.67-26.13 66.74-23.67 93.44 0.58 6.35 3.57 15.55 4.77 22.62 8.43 49.5 26.02 79.96 72.01 102.67 55.74 27.52 124.67 24.5 181.62 1.61 17.56-7.05 22.27-13.66 35.8-25.15 3.95-3.35 9.07-5.92 13.01-9.63 34.65-32.55 50.97-104.82 44.94-150.41-3.24-24.47-8.01-43.66-20.51-65.11-8.09-13.88-17.91-24.97-29.31-36.1-25.01-24.41-51.66-26.89-83.67-35.87-12.67-3.56-23.78-8.27-37.47-9.12-19.58-1.21-62.86 4.33-81.73 10.11-12.1 3.71-24.36 7.09-36.44 10.83-29.42 9.1-56.27 24.55-81.34 41.95-7.74 5.37-13.31 11.2-18.96 18.72-12.02 16.01-22.97 32.41-25.98 52.78-2.64 17.76-4.57 35.95-6.54 53.76-1.53 13.97-1.09 21.25 0.61 34.83 2.18 17.37 5.26 30.22 9.25 46.93 5.29 22.19 7.77 39.93 19.25 60.2z"/>
		<path id="&lt;Path&gt;" class="s3" d="m741.43-519.95c0.7 2.93 1.02 5.27 2.54 7.95 0.26 0.46 0.75 1.3 1.25 1.46 0.57 0.19 1.52-0.24 2.13-0.41 0.58-0.17 0.99-0.04 1.41-0.67 0.48-0.73-0.4-1.89-0.64-2.63-1.19-3.58-2.34-7.81-2.75-11.54-0.56-5.05-0.89-13.66 3.24-17.36 1.05-0.93 2.19-2.03 3.32-2.83 1.48-1.03 5.32-2.86 7.06-3.34 5.66-1.55 10.17-3.32 16.23-2.17 2.5 0.48 4.52 1.79 6.77 2.74 2.51 1.06 4.53 1.16 6.27 3.67 1.73 2.49 2.93 6.43 3.04 9.44 0.13 3.46-0.05 5.59-0.95 8.91-0.82 3.04-1.7 3.55-3.7 5.7-0.87 0.94-1.51 1.88-2.54 2.71-2.21 1.75-6.88 4.16-9.69 4.31-2.08 0.1-4.1-0.25-6.14-0.42-0.61-0.05-1.26 0.05-1.87-0.03-1.59-0.2-5.26-1.72-6.61-2.61-1.73-1.15-3.23-2.7-4.29-4.48-1.18-1.97-1.11-3.84-1.28-6.05-0.2-2.69-0.36-5.89 0.32-8.52 0.25-0.94 3.09-4.42 3.92-5.13 2.38-2.02 4.75-2.36 7.74-2.75 1.9-0.25 3.23-0.59 5.12-0.07 3.95 1.1 8.82 3.2 8.85 7.97 0.01 1.46-0.19 3.62-0.46 5.06-0.33 1.77-0.91 1.98-2.04 3.07-1.25 1.2-2.06 2.34-3.83 2.82-2.41 0.66-5.19 0.4-7.55-0.41-2.59-0.9-3.87-5.33-3.28-7.8 0.59-2.5 3.38-4.66 5.96-4.29 1.75 0.25 2.71 2.18 1.31 3.47-0.26 0.23-0.57 0.28-0.78 0.44-0.39 0.3-1.24 1.01-1.54 1.35-0.69 0.79-0.04 2.13 0.63 2.72 0.89 0.8 2.26-0.01 3.14-0.48 2.13-1.15 3.36-2.65 3.64-5.14 0.3-2.71-2.46-5.94-5.13-6.25-1.77-0.2-5.14-0.36-6.61 0.67-0.61 0.42-1.11 1.07-1.59 1.57-2.11 2.16-3.16 3.26-3.4 6.46-0.27 3.79 1.25 9.6 5.1 11.19 4.44 1.83 12.64 1.74 16.38-1.55 4.08-3.58 6.4-12.63 4.22-17.61-3.1-7.08-11.61-7.56-18.33-7.36-2 0.06-4.56 0.91-6.46 1.59-2.24 0.81-5.68 3.74-7.09 5.66-2.12 2.86-3.45 8.81-3.13 12.33 0.08 0.84 0.47 2.06 0.63 2.99 1.11 6.53 3.44 10.55 9.51 13.55 7.36 3.64 16.46 3.24 23.97 0.22 2.32-0.94 2.94-1.81 4.73-3.32 0.52-0.45 1.2-0.79 1.72-1.28 4.57-4.29 6.73-13.83 5.93-19.85-0.43-3.23-1.06-5.77-2.71-8.6-1.06-1.83-2.36-3.3-3.87-4.76-3.3-3.23-6.82-3.55-11.04-4.74-1.68-0.47-3.14-1.09-4.95-1.2-2.58-0.16-8.3 0.57-10.79 1.33-1.6 0.49-3.22 0.94-4.81 1.43-3.88 1.2-7.43 3.24-10.74 5.54-1.02 0.71-1.75 1.48-2.5 2.47-1.59 2.11-3.03 4.28-3.43 6.97-0.35 2.34-0.6 4.74-0.86 7.1-0.21 1.84-0.15 2.8 0.08 4.59 0.28 2.3 0.69 3.99 1.22 6.2z"/>
		<path id="&lt;Path&gt;" class="s3" d="m678.15-480.8c-4.56-3.93-14.11-6.75-17.55-10.93-1.23-1.85 1.15-2.44 2.67-2.4 5.08-0.17 12.28 4.11 16.01 4.78 3.73 0.59 2.27-4.36 1.61-7.45-1.35-5.11-3.09-9.3-7.68-11.13-6.13-2.06-13.36-1.85-19.52-0.39-13.94 2.81-16.76 18.82-8.83 28.86 2.93 3.82 6.79 6.39 11.04 8.84 3.07 2.12 11.73 5.23 11.14 8.85-3.26 3.12-10.03-0.46-13.63-2.08-4.97-2.24-9.26-6.43-12.19-5.76-2.09 1.79-0.87 5.7-0.82 8.35 0.42 3.83 1.02 8.52 3.76 10.98l0.22 0.19c8.17 5.26 27.83 5.25 35.76-1.27 9.42-7.14 7.49-22.91-1.99-29.44z"/>
		<path id="&lt;Path&gt;" class="s3" d="m733.94-461.15c-0.22-5.81-0.23-11.68 0.07-17.49 0.48-7.45 2.38-11.92-4.91-12.39-4.46-0.23-9.86-0.77-14.05 1-2.91 1.49-1.84 5.72-1.67 11.06 0.14 3.41 0.24 7.47-0.4 10.65-0.58 2.93-1.67 4.79-2.65 4.3-2.03-1.13-2.28-7.81-2.17-10.85-0.32-4.93 2.06-13.6-1.55-15.16-2.7-1.3-5.95-1.14-8.99-1.23-3.07 0.09-6.89-0.08-9.21 1.47-2.3 1.62-1.06 5.79-0.8 10.68 0.42 6.05 0.07 12.5 0.55 18.23l0.03 0.35c0.13 10.62 10.33 17.25 19.58 11.34 1.96-1.2 3.57-3.7 5.09-4.94 0.47-0.29 0.8-0.16 1.1 0.3 2.55 7.05 9.58 7.39 16.2 6.39 6.99-1.08 3.65-7.48 3.78-13.71z"/>
		<path id="&lt;Path&gt;" class="s3" d="m831.54-463.36c-0.64-8.65 1.73-18.97-4.73-25.66-4.99-4.7-14.14-3.72-17.98 1.87-1.37 1.81-2.15 3.38-2.72 3.48-0.32 0.08-0.55-0.2-0.77-0.74-0.93-3.46-3.39-6.44-7.29-6.59-3.58-0.35-8.29-0.26-10.67 0.5-0.85 0.28-1.6 0.72-2.04 1.45-1.12 1.89 0.01 5.76 0.17 9.99q0.47 9.85 0 19.7c-0.06 4.93-1.86 8.86 0.47 10.85 2.24 1.54 7.12 1.25 10.35 1.3 3.28-0.14 6.12 0.19 8.75-1.3 2.32-1.5 1.07-5.84 0.97-10.88-0.15-4.79-0.55-11.93 1.94-14.98 2.75-2.67 3.61 7.59 3.3 10.67l-0.01 0.37c0.33 4.34-1.61 12.26 0.41 14.43 1.99 1.73 4.86 1.5 7.48 1.67 3.63-0.07 8.61 0.42 11.72-1.06 0.93-0.53 1.35-1.31 1.46-2.42 0.11-3.07-0.91-8.67-0.81-12.65z"/>
		<path id="&lt;Compound Path&gt;" fill-rule="evenodd" class="s3" d="m878.44-448.57c-2.98 1.77-8.78 1.82-13.01 0.57-2.25-0.56-4.18-2.15-6.39-2.52l-0.15-0.01c-1.25-0.2-4.37 1.49-6.64 2.52-3.47 1.53-7.67 1.75-11.24 0.51-8.61-2.62-10.42-14.65-4.46-20.66 3.83-4.29 10.06-5.66 15.46-6.71 2.27-0.67 4.23-0.56 5.08-2.2 0.2-1.22-3.4-2.52-7.39-1.95-3.83 0.32-8.61 2.72-11.64 3.94-6.46 2.69-1.4-9.31 0.9-12.6 3.09-4.58 8.11-4.55 13.49-4.96 7.38-0.2 16.51-1.1 22.19 4.31 6.9 8.4 3.44 22.19 5.15 32.8 0.25 3.19 0.65 5.47-1.35 6.96zm-19.8-22.19c-1.32-1.15-3.36 1.6-3.93 3.39-0.8 2.86-2.18 8.65 0.92 10.31 2.55 0.21 3.29-4.63 3.32-6.47l0.01-0.27c-0.09-1.63 0.33-5.46-0.32-6.96z"/>
		<path id="&lt;Path&gt;" class="s3" d="m782.67-463.36c-0.63-8.65 1.74-18.97-4.73-25.66-4.99-4.7-14.14-3.72-17.98 1.87-1.37 1.81-2.15 3.38-2.72 3.48-0.31 0.08-0.54-0.2-0.77-0.74-0.93-3.46-3.39-6.44-7.29-6.59-3.58-0.35-8.29-0.26-10.66 0.5-0.85 0.28-1.61 0.72-2.04 1.45-1.12 1.89 0 5.76 0.17 9.99q0.47 9.85 0 19.7c-0.07 4.93-1.86 8.86 0.46 10.85 2.24 1.54 7.12 1.25 10.35 1.3 3.29-0.14 6.12 0.19 8.75-1.3 2.33-1.5 1.07-5.84 0.98-10.88-0.16-4.79-0.56-11.93 1.93-14.98 2.76-2.67 3.62 7.59 3.3 10.67v0.37c0.33 4.34-1.61 12.26 0.41 14.43 1.98 1.73 4.85 1.5 7.48 1.67 3.63-0.07 8.61 0.42 11.72-1.06 0.92-0.53 1.34-1.31 1.45-2.42 0.12-3.07-0.91-8.67-0.81-12.65z"/>
		<text id="Built on wheels, the mobile sauna can be placed ne" style="transform: matrix(1,0,0,1,1248.53,-595.172)" >
			<tspan x="1.1" y="18.2" class="t9">Built on wheels, the mobile </tspan>
			<tspan x="9.3" y="47" class="t9">sauna can be placed near </tspan>
			<tspan x="39.1" y="75.8" class="t9">cliffs overlooking the </tspan>
			<tspan x="36.7" y="104.6" class="t9">Atlantic, deep in pine </tspan>
			<tspan x="10.1" y="133.4" class="t9">forests, or beside tranquil </tspan>
			<tspan x="31.2" y="162.2" class="t9">rivers. One of its most </tspan>
			<tspan x="29.5" y="191" class="t9">striking features is the </tspan>
			<tspan x="14.4" y="219.8" class="t9">large panoramic window.
</tspan>
		</text>
		<text id="Sainte-Colombe Medium
Production Type
" style="transform: matrix(1,0,0,1,1271.39,-702.693)" >
			<tspan x="22.1" y="13.7" class="t10" dx="0 1 1 1 1 1 1 1 1 1 1 1 1 1 1 1 1 1 1 1 1 1" >Sainte-Colombe Medium
</tspan>
			<tspan x="63.8" y="35.3" class="t10" dx="0 1 1 1 1 1 1 1 1 1 1 1 1 1 1 1" >Production Type
</tspan>
		</text>
		<text id="Inter : 0 Pt
" style="transform: matrix(1,0,0,1,1271.39,-274.37)" >
			<tspan x="74.5" y="13.7" class="t11" dx="0 1 1 1 1 1 1 1 1 1 1 1 1" >INTER : 0 PT
</tspan>
		</text>
		<text id="Windows to nature
" style="transform: matrix(1,0,0,1,760,-420.324)" >
			<tspan x="-99.1" y="0" class="t12" dx="0 3 3 3 3 3 3 3 3 3 3 3 3 3 3 3 3 3" >WINDOWS TO NATURE
</tspan>
		</text>
		<path id="&lt;Path&gt;" class="s3" d="m1678.95-827.16h-577.9c-8.87 0-16.05-7.19-16.05-16.05v-478.62c0-8.87 7.18-16.05 16.05-16.05h577.9c8.87 0 16.05 7.18 16.05 16.05v478.62c0 8.86-7.18 16.05-16.05 16.05z"/>
		<path id="&lt;Path&gt;" class="s2" d="m1048.95-827.78h-577.9c-8.87 0-16.05-7.18-16.05-16.04v-478.63c0-8.86 7.18-16.05 16.05-16.05h577.9c8.87 0 16.05 7.19 16.05 16.05v478.63c0 8.86-7.18 16.04-16.05 16.04z"/>
		<g id="&lt;Group&gt;">
			<path id="&lt;Path&gt;" class="s3" d="m39.7-1089.21c-4.56-3.93-14.11-6.76-17.55-10.94-1.23-1.84 1.15-2.44 2.68-2.39 5.07-0.18 12.27 4.11 16 4.77 3.73 0.6 2.27-4.36 1.61-7.45-1.35-5.1-3.09-9.29-7.68-11.12-6.13-2.07-13.36-1.85-19.52-0.39-13.94 2.8-16.76 18.82-8.83 28.86 2.93 3.81 6.79 6.39 11.04 8.83 3.07 2.13 11.73 5.24 11.14 8.86-3.25 3.11-10.03-0.47-13.63-2.09-4.97-2.23-9.26-6.43-12.19-5.75-2.09 1.79-0.87 5.7-0.82 8.34 0.42 3.84 1.02 8.52 3.77 10.98l0.21 0.19c8.17 5.27 27.83 5.25 35.76-1.27 9.42-7.13 7.49-22.9-1.99-29.43z"/>
			<path id="&lt;Path&gt;" class="s3" d="m95.57-1087.05c0.47-7.46 2.37-11.93-4.92-12.4-4.46-0.22-9.86-0.77-14.05 1.01-2.91 1.49-1.84 5.72-1.67 11.05 0.14 3.42 0.24 7.48-0.39 10.65-0.59 2.94-1.67 4.8-2.66 4.31-2.03-1.13-2.28-7.82-2.17-10.85-0.32-4.94 2.06-13.6-1.55-15.16-2.7-1.31-5.95-1.14-8.99-1.23-3.07 0.09-6.89-0.08-9.21 1.47-2.3 1.62-1.06 5.79-0.8 10.67 0.42 6.05 0.07 12.51 0.55 18.24l0.04 0.35c0.12 10.62 10.32 17.25 19.57 11.33 1.96-1.19 3.57-3.7 5.09-4.93 0.47-0.3 0.8-0.16 1.1 0.3 2.55 7.05 9.58 7.39 16.2 6.39 6.99-1.09 3.65-7.49 3.78-13.71-0.22-5.81-0.23-11.68 0.08-17.49z"/>
			<path id="&lt;Path&gt;" class="s3" d="m188.36-1097.43c-4.99-4.71-14.14-3.72-17.98 1.86-1.37 1.82-2.15 3.39-2.72 3.49-0.31 0.08-0.54-0.21-0.77-0.74-0.93-3.46-3.39-6.44-7.29-6.59-3.58-0.36-8.29-0.26-10.67 0.5-0.85 0.27-1.6 0.72-2.04 1.44-1.12 1.89 0.01 5.76 0.18 10q0.46 9.85-0.01 19.7c-0.06 4.93-1.85 8.86 0.47 10.84 2.24 1.55 7.12 1.25 10.35 1.31 3.29-0.14 6.12 0.18 8.75-1.31 2.32-1.49 1.07-5.83 0.97-10.87-0.15-4.8-0.55-11.93 1.94-14.98 2.75-2.67 3.61 7.59 3.3 10.67l-0.01 0.37c0.34 4.33-1.6 12.26 0.41 14.42 1.99 1.74 4.86 1.5 7.48 1.67 3.64-0.06 8.62 0.42 11.73-1.05 0.92-0.53 1.34-1.31 1.45-2.43 0.12-3.06-0.91-8.67-0.81-12.64-0.64-8.66 1.73-18.97-4.73-25.66z"/>
			<path id="&lt;Compound Path&gt;" fill-rule="evenodd" class="s3" d="m239.99-1056.99c-2.98 1.77-8.78 1.82-13.01 0.58-2.25-0.57-4.17-2.15-6.39-2.52l-0.14-0.01c-1.25-0.21-4.37 1.48-6.65 2.51-3.47 1.53-7.67 1.75-11.23 0.51-8.62-2.61-10.43-14.64-4.47-20.66 3.83-4.28 10.06-5.65 15.46-6.7 2.27-0.67 4.23-0.56 5.08-2.21 0.2-1.21-3.4-2.52-7.38-1.95-3.83 0.33-8.62 2.73-11.65 3.95-6.46 2.68-1.4-9.31 0.9-12.6 3.09-4.58 8.11-4.55 13.49-4.97 7.38-0.19 16.51-1.09 22.19 4.31 6.9 8.41 3.44 22.2 5.15 32.81 0.25 3.19 0.65 5.47-1.35 6.95zm-19.8-22.18c-1.32-1.15-3.36 1.6-3.92 3.38-0.81 2.86-2.19 8.65 0.91 10.32 2.55 0.21 3.29-4.63 3.32-6.47l0.01-0.28c-0.09-1.63 0.33-5.45-0.32-6.95z"/>
			<path id="&lt;Path&gt;" class="s3" d="m139.49-1097.43c-4.99-4.71-14.14-3.72-17.98 1.86-1.37 1.82-2.15 3.39-2.72 3.49-0.31 0.08-0.54-0.21-0.77-0.74-0.93-3.46-3.38-6.44-7.29-6.59-3.58-0.36-8.29-0.26-10.66 0.5-0.85 0.27-1.61 0.72-2.04 1.44-1.12 1.89 0 5.76 0.17 10q0.47 9.85 0 19.7c-0.07 4.93-1.86 8.86 0.46 10.84 2.24 1.55 7.12 1.25 10.35 1.31 3.29-0.14 6.12 0.18 8.75-1.31 2.33-1.49 1.07-5.83 0.98-10.87-0.16-4.8-0.55-11.93 1.93-14.98 2.76-2.67 3.62 7.59 3.3 10.67v0.37c0.33 4.33-1.61 12.26 0.41 14.42 1.98 1.74 4.85 1.5 7.48 1.67 3.63-0.06 8.61 0.42 11.72-1.05 0.92-0.53 1.34-1.31 1.45-2.43 0.12-3.06-0.91-8.67-0.81-12.64-0.63-8.66 1.74-18.97-4.73-25.66z"/>
		</g>
		<path id="&lt;Compound Path&gt;" fill-rule="evenodd" class="s4" d="m886.64-1012.84c-3.8 6.6-19.06 18.54-24.21 25.96-5.53 7.49-3.79 23.53-8.18 32.6-10.02 18.91-25.31-3.34-34.95-11.55-5.41-3.82-7.45-4.28-12.95-6.96-5.51-2.45-12.62-0.68-17.06-3.12-6.46-2.38-16.61-11.81-8.57-18.28 8.99-7.35 23.04-17.23 26.82-30.03 6.6-32.72 13.31-40.51 37.19-11.99 8.74 10.97 39.29 3.6 41.86 22.26zm-30.63-13.96h0.01l0.17-0.05zm25.96 17.68l0.01-0.05q-0.07 0.07-0.15 0.13 0.07-0.04 0.14-0.08zm-10.79-14.22q0 0-0.01 0 0.01 0 0.01 0z"/>
		<g id="&lt;Group&gt;">
			<path id="&lt;Path&gt;" class="s4" d="m712.51-957.25c0.61 0.03 0.31 0.01-0.22-0.07z"/>
			<path id="&lt;Compound Path&gt;" fill-rule="evenodd" class="s4" d="m731.78-965.53l-0.18 0.52c-5.27 12.11-21.71 8.94-29.55 3.09-2.25-0.14-2.72 2.89-3.77 4.65-2.11 4.93-7.16 9.31-10.43 11.06-19.71 4.88-24.84-5.47-24.68-15.53-1.75 0.08-4.94 2.27-7.16 2.69-14.1 3.86-27.51-13.89-20.93-26.6 2.26-4.69 9.39-5.93 9.92-8.31 0.1-1.06-0.2-2.23-0.58-3.22-7.57-14.85 8.1-28.76 22.16-25.12 1.88 0.39 3.54 1.57 4.2-0.73 2.86-8.35 14.53-17.78 23.74-14.14 2.14 1.39 4.23 1.97 5.97 4.61 0.89 1.54 2.26 4.27 4.13 4.99 1.81 0.89 4.57 0.01 7.71-0.14 7.41 0.02 11.72 4.43 15.26 10.51 6.89 12.98 0.65 24.31-12.1 24.93 10.73 3.43 18.28 15.04 16.29 26.74zm-66.46 0.68q-0.01-0.01-0.01-0.02-0.01 0.01-0.01 0.02zm61.26-19.19l-0.07-0.09q0.03 0.04 0.05 0.07 0.01 0.01 0.02 0.02zm-0.08-0.12l0.01 0.03q0-0.01-0.01-0.03z"/>
		</g>
		<path id="&lt;Compound Path&gt;" class="s4" d="m832.53-1202.33c-12.88-1.15-23.92 0.22-35.33 15.27-4.17 5.5-7.55 15.08-7.93 22.2-2.73 37.66 54.35 57.86 75.19 26.19 5.56-8.75 6.44-10.27 10.44-26.64 4-16.36-29.48-35.87-42.37-37.02z"/>
		<path id="&lt;Path&gt;" class="s4" d="m701.98-1092.02c-1.17 7.69-1.73 23.02-9.53 12.62-2.95-3.9-6.53-10.35-10.75-16.49-5.61-8.92-14.86-13.17-13.2-24.02-3.06-10.51-18.87-12.38-25.09-20.02-7.65-7.72 2.16-12.32 8.91-14.49 10.9-6.05-2.94-10.97-9-18.28-4.42-4.21-8.73-10.99-5.68-15.67 3.43-3.69 7.99-3.43 11.23-7 0.83-2.75 0.28-2.73-0.39-10.35 10.72-33.57 36.56-22.95 59.17-5.06 3.44 2.3 6.94 5.53 9.24 9 5.63 8.47-14.93 24.9-0.06 25.7 7.29 0.46 14.22 1.27 11.35 11.24-2.69 9.46-14.14 20.01-15.65 25.55-1.75 3.94 5.2 3.89 8.64 7.28 7.18 11.24-18.11 32.64-18.77 38.32z"/>
		<path id="&lt;Path&gt;" class="s3" d="m418.95-1351.97h-577.9c-8.87 0-16.05-7.19-16.05-16.05v-478.63c0-8.86 7.18-16.04 16.05-16.04h577.9c8.87 0 16.05 7.18 16.05 16.04v478.63c0 8.86-7.18 16.05-16.05 16.05z"/>
		<path id="&lt;Path&gt;" class="s1" d="m1678.95-1351.97h-577.9c-8.87 0-16.05-7.19-16.05-16.05v-478.63c0-8.86 7.18-16.04 16.05-16.04h577.9c8.87 0 16.05 7.18 16.05 16.04v478.63c0 8.86-7.18 16.05-16.05 16.05z"/>
		<path id="&lt;Path&gt;" class="s2" d="m1048.95-1352.59h-577.9c-8.87 0-16.05-7.18-16.05-16.04v-478.63c0-8.86 7.18-16.05 16.05-16.05h577.9c8.87 0 16.05 7.19 16.05 16.05v478.63c0 8.86-7.18 16.04-16.05 16.04z"/>
		<path id="&lt;Compound Path&gt;" fill-rule="evenodd" class="s13" d="m154.98-1457.09c-3.66-4.87-8.34-11.42-13.01-16.31-4.87-6.09-14.1-9.67-21.66-5.79-7.02 4.31-11.14 10.38-17.23 16.39-22.12 25.37-28.55 10.62-34.37-14.98-5.78-19.45-22.05-18.28-31.68-14.9-8.32 2.93-27.32 16.2-38.1 8.43-2.23-1.83-2.27-2.15-2.43-4.58-0.12-3.67 1.71-9.97 2.69-13.39l6.24-19.97c2.84-16.59-10.94-18.16-23.59-18.74-5.42-0.27-17.85-0.56-21.2-1.33-2.1-0.36 6.28 0.63 3.7 0.27-3.05-0.45-10.28-1.61-12.67-4.41-9.55-13.19 13.71-24.63 21.82-34.53 3.08-3.14 5.02-6.22 6.96-8.39 0.01 0.27-0.04 0.58-0.14 0.84 3.39-6.37 2.81-12.98-3.54-18.78-4.61-4.79-7.54-5.74-11.92-9.83-2.01-1.71 1.57 1.05-0.5-0.78-6.12-5.4-15.11-11.91-14.49-21.43 2.85-13.68 23.21-13.15 34.26-16.09 25.41-3.93 19.15-25.58 13.1-43.59-3.3-9.96-6-34.18 11.95-29.53 12.52 2.83 23.59 14.01 36.84 12.89 12.77-3.29 13.2-21.09 15.32-31.68 0.99-8.48 1.93-12.63 5.24-21.06 18.18-24.87 38.98 33.37 49.27 32.54 10.54-0.85 21.12-16.51 21.12-16.51 3.25-3.62 8.23-12.31 13.33-15.77 3.13-2.23 6.45-3.83 6.95-3.9 0.5-0.08 0.57-0.08 0.57-0.08 12.13 1.18 12.49 11.41 14.89 21.74l0.2 1.09c6.59 44.13 13.07 38.48 52.44 20.9 28.97-7.23 22.88 13.54 16.1 32.17-0.86 2.33-0.83 2.19-1.16 3-0.22 0.52-0.37 0.79-0.35 0.63-0.05-0.12 0.38-1.48 0.03-0.7-0.78 1.94-2.03 5.56-2.25 6.74-0.11 1.48-1.05 6.76-1.11 7.68 0 0.18-0.18-0.01 0.26 1.73 2.67 10.35 15.55 12.92 24.38 13.77 9.91 1.99 26.3 2.23 31.78 12.65 0.99 2.4 0.85 5.13-0.18 7.57-7.01 14.24-26.26 17.71-31.53 31.96-1.07 2.67-0.6 8.44 0.47 11.06-0.38-0.82-1.02-2.15-0.95-1.95q0.44 1.14 1.11 2.29 0.05 0.1 0.1 0.19-0.02-0.04-0.05-0.11c5.6 9.56 22.3 20.43 28.23 30.83l0.35 0.61c4.89 9.09-2.2 17.43-11.79 17.91-11.88 1.99-32.99-2.35-38.06 12.68-4.85 17.02 15.79 39.67 2.7 54.39-1.55 1.19-3.93 1.08-5.82 1.04-15.66-2.44-27.73-19.39-44.1-14.25-1.32 0.58-1.98 1.01-2.37 1.19-0.45 0.29 0.58-0.64 0.11-0.27-6.35 5.81-7.45 15.07-9.16 23.93-1.05 14.49-10.1 35.54-26.1 16.15zm107.01-142.58q-0.02-0.04-0.05-0.07-0.08-0.17-0.15-0.35 0.12 0.26 0.2 0.42zm-25.12-86.74q0.03-0.11 0.06-0.2-0.02 0.05-0.05 0.15-0.01 0.02-0.01 0.05zm0.11-0.36q-0.03 0.09-0.05 0.16 0.02-0.07 0.05-0.16z"/>
		<g id="&lt;Group&gt;">
			<path id="&lt;Path&gt;" class="s3" d="m67.94-1613.01c-2.99-2.58-9.24-4.43-11.5-7.17-0.81-1.2 0.75-1.59 1.75-1.56 3.33-0.12 8.05 2.69 10.49 3.12 2.44 0.39 1.48-2.85 1.05-4.88-0.88-3.34-2.02-6.09-5.03-7.28-4.01-1.36-8.75-1.22-12.79-0.26-9.13 1.84-10.97 12.33-5.78 18.9 1.92 2.5 4.45 4.19 7.23 5.79 2.01 1.39 7.68 3.43 7.3 5.8-2.13 2.04-6.57-0.3-8.93-1.36-3.25-1.47-6.06-4.22-7.99-3.77-1.36 1.17-0.56 3.73-0.53 5.46 0.28 2.51 0.67 5.58 2.47 7.19l0.14 0.13c5.35 3.45 18.22 3.44 23.42-0.83 6.17-4.68 4.91-15.01-1.3-19.28z"/>
			<path id="&lt;Path&gt;" class="s3" d="m104.53-1611.6c0.31-4.88 1.56-7.81-3.22-8.12-2.92-0.14-6.46-0.5-9.2 0.66-1.91 0.98-1.21 3.75-1.1 7.24 0.1 2.24 0.16 4.9-0.26 6.98-0.38 1.92-1.09 3.14-1.73 2.82-1.33-0.74-1.5-5.12-1.43-7.11-0.21-3.23 1.36-8.91-1.01-9.93-1.77-0.86-3.9-0.75-5.89-0.8-2.01 0.06-4.51-0.06-6.03 0.96-1.51 1.06-0.7 3.79-0.53 6.99 0.28 3.96 0.05 8.19 0.37 11.94l0.02 0.24c0.08 6.95 6.76 11.29 12.82 7.42 1.28-0.78 2.34-2.43 3.33-3.23 0.31-0.2 0.53-0.11 0.73 0.19 1.66 4.62 6.27 4.84 10.6 4.19 4.58-0.71 2.4-4.9 2.48-8.98-0.14-3.81-0.15-7.65 0.05-11.46z"/>
			<path id="&lt;Path&gt;" class="s3" d="m165.31-1618.4c-3.27-3.08-9.26-2.43-11.78 1.22-0.89 1.19-1.4 2.22-1.78 2.29-0.2 0.05-0.35-0.14-0.5-0.49-0.61-2.26-2.22-4.22-4.78-4.31-2.34-0.24-5.43-0.17-6.98 0.32-0.56 0.18-1.05 0.47-1.34 0.95-0.73 1.24 0.01 3.77 0.11 6.55q0.31 6.45 0 12.9c-0.04 3.23-1.21 5.8 0.31 7.1 1.47 1.02 4.66 0.82 6.78 0.86 2.15-0.09 4.01 0.12 5.73-0.86 1.52-0.98 0.7-3.82 0.64-7.12-0.1-3.14-0.36-7.81 1.27-9.81 1.8-1.75 2.36 4.97 2.16 6.99l-0.01 0.24c0.22 2.84-1.05 8.03 0.27 9.45 1.3 1.14 3.18 0.98 4.9 1.09 2.38-0.04 5.64 0.28 7.68-0.69 0.6-0.34 0.88-0.86 0.95-1.59 0.08-2-0.6-5.68-0.53-8.28-0.42-5.67 1.14-12.42-3.1-16.81z"/>
			<path id="&lt;Compound Path&gt;" fill-rule="evenodd" class="s3" d="m199.13-1591.91c-1.95 1.16-5.75 1.2-8.52 0.38-1.47-0.37-2.73-1.41-4.18-1.65h-0.1c-0.82-0.14-2.86 0.97-4.35 1.64-2.28 1-5.03 1.15-7.36 0.34-5.64-1.72-6.83-9.6-2.93-13.54 2.51-2.8 6.59-3.7 10.13-4.39 1.48-0.44 2.77-0.37 3.33-1.44 0.13-0.8-2.23-1.65-4.84-1.28-2.51 0.21-5.64 1.78-7.63 2.58-4.23 1.76-0.91-6.1 0.59-8.25 2.02-3 5.31-2.98 8.84-3.25 4.83-0.13 10.81-0.72 14.53 2.82 4.52 5.51 2.25 14.54 3.38 21.49 0.16 2.09 0.42 3.58-0.89 4.55zm-12.96-14.53c-0.87-0.75-2.21 1.05-2.58 2.22-0.52 1.87-1.43 5.67 0.6 6.76 1.67 0.14 2.16-3.04 2.18-4.24v-0.18c-0.05-1.07 0.22-3.58-0.2-4.56z"/>
			<path id="&lt;Path&gt;" class="s3" d="m133.3-1618.4c-3.27-3.08-9.26-2.43-11.78 1.22-0.89 1.19-1.4 2.22-1.78 2.29-0.2 0.05-0.35-0.14-0.5-0.49-0.61-2.26-2.22-4.22-4.78-4.31-2.34-0.24-5.43-0.17-6.98 0.32-0.56 0.18-1.05 0.47-1.34 0.95-0.73 1.24 0.01 3.77 0.11 6.55q0.31 6.45 0 12.9c-0.04 3.23-1.21 5.8 0.31 7.1 1.47 1.02 4.66 0.82 6.78 0.86 2.15-0.09 4.01 0.12 5.73-0.86 1.52-0.98 0.7-3.82 0.64-7.12-0.1-3.14-0.36-7.81 1.27-9.81 1.8-1.75 2.36 4.97 2.16 6.99l-0.01 0.24c0.22 2.84-1.05 8.03 0.27 9.45 1.3 1.14 3.18 0.98 4.9 1.09 2.38-0.04 5.64 0.28 7.68-0.69 0.6-0.34 0.88-0.86 0.95-1.59 0.08-2-0.6-5.68-0.53-8.28-0.41-5.67 1.14-12.42-3.1-16.81z"/>
		</g>
		<path id="&lt;Path&gt;" class="s13" d="m1205.7-925.42c1.97 3.48 5.66 9.85 9.47 11.08 4.35 1.41 11.51-1.84 16.11-3.14 4.44-1.24 7.53-0.29 10.68-5.07 3.64-5.51-2.99-14.27-4.84-19.89-8.96-27.1-17.7-59.13-20.81-87.42-4.21-38.26-6.72-103.44 24.58-131.46 7.9-7.07 16.52-15.44 25.13-21.44 11.23-7.82 40.27-21.69 53.48-25.3 42.88-11.74 77.04-25.18 122.94-16.43 18.91 3.61 34.22 13.53 51.22 20.7 19.08 8.06 34.33 8.82 47.54 27.82 13.1 18.84 22.18 48.69 23.03 71.49 0.99 26.21-0.42 42.33-7.21 67.5-6.22 23.06-12.87 26.87-28.02 43.22-6.6 7.12-11.41 14.23-19.27 20.46-16.74 13.26-52.12 31.57-73.38 32.65-15.72 0.8-31.07-1.89-46.48-3.17-4.64-0.38-9.53 0.4-14.2-0.18-12.03-1.52-39.82-13.07-50.05-19.82-13.13-8.66-24.47-20.44-32.53-33.91-8.9-14.89-8.38-29.11-9.64-45.84-1.55-20.39-2.72-44.6 2.44-64.53 1.84-7.14 23.37-33.49 29.66-38.84 18.04-15.32 35.98-17.89 58.59-20.87 14.41-1.9 24.51-4.47 38.84-0.5 29.89 8.29 66.76 24.2 67.01 60.39 0.07 11.05-1.47 27.41-3.52 38.34-2.5 13.38-6.83 14.93-15.45 23.24-9.42 9.07-15.55 17.68-28.99 21.36-18.27 5-39.32 3.03-57.18-3.14-19.6-6.78-29.3-40.35-24.88-59.05 4.48-18.99 25.6-35.33 45.21-32.52 13.25 1.9 20.52 16.55 9.87 26.29-1.94 1.78-4.3 2.14-5.89 3.35-2.93 2.23-9.43 7.65-11.69 10.24-5.18 5.94-0.27 16.09 4.77 20.59 6.75 6.03 17.19-0.13 23.78-3.68 16.15-8.7 25.45-20.02 27.58-38.87 2.32-20.59-18.59-45.04-38.84-47.37-13.41-1.54-38.91-2.75-50.08 5.03-4.61 3.21-8.39 8.16-12.06 11.92-15.95 16.37-23.92 24.67-25.68 48.97-2.07 28.67 9.44 72.69 38.57 84.72 33.62 13.87 95.76 13.16 124.12-11.76 30.88-27.13 48.48-95.67 31.95-133.36-23.5-53.61-87.96-57.23-138.85-55.74-15.13 0.45-34.51 6.87-48.92 12.04-16.97 6.1-43.02 28.31-53.75 42.84-16.02 21.67-26.13 66.74-23.67 93.44 0.58 6.35 3.57 15.55 4.77 22.62 8.43 49.5 26.02 79.96 72.01 102.67 55.74 27.52 124.67 24.5 181.62 1.61 17.56-7.05 22.27-13.66 35.8-25.15 3.95-3.35 9.07-5.92 13.01-9.63 34.65-32.55 50.97-104.82 44.94-150.41-3.24-24.47-8.01-43.66-20.51-65.11-8.09-13.88-17.91-24.97-29.31-36.1-25.01-24.41-51.66-26.89-83.67-35.87-12.67-3.56-23.78-8.27-37.47-9.12-19.58-1.21-62.86 4.33-81.73 10.11-12.1 3.71-24.36 7.09-36.44 10.83-29.42 9.1-56.27 24.55-81.34 41.95-7.74 5.37-13.31 11.2-18.96 18.72-12.02 16.01-22.97 32.41-25.98 52.78-2.64 17.76-4.57 35.95-6.54 53.76-1.53 13.97-1.09 21.25 0.61 34.83 2.18 17.37 5.26 30.22 9.25 46.93 5.29 22.19 7.77 39.93 19.25 60.2z"/>
		<path id="&lt;Path&gt;" class="s3" d="m741.43-1639.95c0.7 2.93 1.02 5.27 2.54 7.95 0.26 0.46 0.75 1.3 1.25 1.46 0.57 0.19 1.52-0.24 2.13-0.41 0.58-0.17 0.99-0.04 1.41-0.67 0.48-0.73-0.4-1.89-0.64-2.63-1.19-3.58-2.34-7.81-2.75-11.54-0.56-5.05-0.89-13.66 3.24-17.36 1.05-0.93 2.19-2.03 3.32-2.83 1.48-1.03 5.32-2.86 7.06-3.34 5.66-1.55 10.17-3.32 16.23-2.17 2.5 0.48 4.52 1.79 6.77 2.74 2.51 1.06 4.53 1.16 6.27 3.67 1.73 2.49 2.93 6.43 3.04 9.44 0.13 3.46-0.05 5.59-0.95 8.91-0.82 3.04-1.7 3.55-3.7 5.7-0.87 0.94-1.51 1.88-2.54 2.71-2.21 1.75-6.88 4.16-9.69 4.31-2.08 0.1-4.1-0.25-6.14-0.42-0.61-0.05-1.26 0.05-1.87-0.03-1.59-0.2-5.26-1.72-6.61-2.61-1.73-1.15-3.23-2.7-4.29-4.48-1.18-1.97-1.11-3.84-1.28-6.05-0.2-2.69-0.36-5.89 0.32-8.52 0.25-0.94 3.09-4.42 3.92-5.13 2.38-2.02 4.75-2.36 7.74-2.75 1.9-0.25 3.23-0.59 5.12-0.07 3.95 1.1 8.82 3.2 8.85 7.97 0.01 1.46-0.19 3.62-0.46 5.06-0.33 1.77-0.91 1.98-2.04 3.07-1.25 1.2-2.06 2.34-3.83 2.82-2.41 0.66-5.19 0.4-7.55-0.41-2.59-0.9-3.87-5.33-3.28-7.8 0.59-2.5 3.38-4.66 5.96-4.29 1.75 0.25 2.71 2.18 1.31 3.47-0.26 0.23-0.57 0.28-0.78 0.44-0.39 0.3-1.24 1.01-1.54 1.35-0.69 0.79-0.04 2.13 0.63 2.72 0.89 0.8 2.26-0.01 3.14-0.48 2.13-1.15 3.36-2.65 3.64-5.14 0.3-2.71-2.46-5.94-5.13-6.25-1.77-0.2-5.14-0.36-6.61 0.67-0.61 0.42-1.11 1.07-1.59 1.57-2.11 2.16-3.16 3.26-3.4 6.46-0.27 3.79 1.25 9.6 5.1 11.19 4.44 1.83 12.64 1.74 16.38-1.55 4.08-3.58 6.4-12.63 4.22-17.61-3.1-7.08-11.61-7.56-18.33-7.36-2 0.06-4.56 0.91-6.46 1.59-2.24 0.81-5.68 3.74-7.09 5.66-2.12 2.86-3.45 8.81-3.13 12.33 0.08 0.84 0.47 2.06 0.63 2.99 1.11 6.53 3.44 10.55 9.51 13.55 7.36 3.64 16.46 3.24 23.97 0.22 2.32-0.94 2.94-1.81 4.73-3.32 0.52-0.45 1.2-0.79 1.72-1.28 4.57-4.29 6.73-13.83 5.93-19.85-0.43-3.23-1.06-5.77-2.71-8.6-1.06-1.83-2.36-3.3-3.87-4.76-3.3-3.23-6.82-3.55-11.04-4.74-1.68-0.47-3.14-1.09-4.95-1.2-2.58-0.16-8.3 0.57-10.79 1.33-1.6 0.49-3.22 0.94-4.81 1.43-3.88 1.2-7.43 3.24-10.74 5.54-1.02 0.71-1.75 1.48-2.5 2.47-1.59 2.11-3.03 4.28-3.43 6.97-0.35 2.34-0.6 4.74-0.86 7.1-0.21 1.84-0.15 2.8 0.08 4.59 0.28 2.3 0.69 3.99 1.22 6.2z"/>
		<path id="&lt;Path&gt;" class="s3" d="m678.15-1600.8c-4.56-3.93-14.11-6.75-17.55-10.93-1.23-1.85 1.15-2.44 2.67-2.4 5.08-0.17 12.28 4.11 16.01 4.78 3.73 0.59 2.27-4.36 1.61-7.45-1.35-5.11-3.09-9.3-7.68-11.13-6.13-2.06-13.36-1.85-19.52-0.39-13.94 2.81-16.76 18.82-8.83 28.86 2.93 3.82 6.79 6.39 11.04 8.84 3.07 2.12 11.73 5.23 11.14 8.85-3.26 3.12-10.03-0.46-13.63-2.08-4.97-2.24-9.26-6.43-12.19-5.76-2.09 1.79-0.87 5.7-0.82 8.35 0.42 3.83 1.02 8.52 3.76 10.98l0.22 0.19c8.17 5.26 27.83 5.25 35.76-1.27 9.42-7.14 7.49-22.91-1.99-29.44z"/>
		<path id="&lt;Path&gt;" class="s3" d="m733.94-1581.15c-0.22-5.81-0.23-11.68 0.07-17.49 0.48-7.45 2.38-11.92-4.91-12.39-4.46-0.23-9.86-0.77-14.05 1-2.91 1.49-1.84 5.72-1.67 11.06 0.14 3.41 0.24 7.47-0.4 10.65-0.58 2.93-1.67 4.79-2.65 4.3-2.03-1.13-2.28-7.81-2.17-10.85-0.32-4.93 2.06-13.6-1.55-15.16-2.7-1.3-5.95-1.14-8.99-1.23-3.07 0.09-6.89-0.08-9.21 1.47-2.3 1.62-1.06 5.79-0.8 10.68 0.42 6.05 0.07 12.5 0.55 18.23l0.03 0.35c0.13 10.62 10.33 17.25 19.58 11.34 1.96-1.2 3.57-3.7 5.09-4.94 0.47-0.29 0.8-0.16 1.1 0.3 2.55 7.05 9.58 7.39 16.2 6.39 6.99-1.08 3.65-7.48 3.78-13.71z"/>
		<path id="&lt;Path&gt;" class="s3" d="m831.54-1583.36c-0.64-8.65 1.73-18.97-4.73-25.66-4.99-4.7-14.14-3.72-17.98 1.87-1.37 1.81-2.15 3.38-2.72 3.48-0.32 0.08-0.55-0.2-0.77-0.74-0.93-3.46-3.39-6.44-7.29-6.59-3.58-0.35-8.29-0.26-10.67 0.5-0.85 0.28-1.6 0.72-2.04 1.45-1.12 1.89 0.01 5.76 0.17 9.99q0.47 9.85 0 19.7c-0.06 4.93-1.86 8.86 0.47 10.85 2.24 1.54 7.12 1.25 10.35 1.3 3.28-0.14 6.12 0.19 8.75-1.3 2.32-1.5 1.07-5.84 0.97-10.88-0.15-4.79-0.55-11.93 1.94-14.98 2.75-2.67 3.61 7.59 3.3 10.67l-0.01 0.37c0.33 4.34-1.61 12.26 0.41 14.43 1.99 1.73 4.86 1.5 7.48 1.67 3.63-0.07 8.61 0.42 11.72-1.06 0.93-0.53 1.35-1.31 1.46-2.42 0.11-3.07-0.91-8.67-0.81-12.65z"/>
		<path id="&lt;Compound Path&gt;" fill-rule="evenodd" class="s3" d="m878.44-1568.57c-2.98 1.77-8.78 1.82-13.01 0.57-2.25-0.56-4.18-2.15-6.39-2.52l-0.15-0.01c-1.25-0.2-4.37 1.49-6.64 2.52-3.47 1.53-7.67 1.75-11.24 0.51-8.61-2.62-10.42-14.65-4.46-20.66 3.83-4.29 10.06-5.66 15.46-6.71 2.27-0.67 4.23-0.56 5.08-2.2 0.2-1.22-3.4-2.52-7.39-1.95-3.83 0.32-8.61 2.72-11.64 3.94-6.46 2.69-1.4-9.31 0.9-12.6 3.09-4.58 8.11-4.55 13.49-4.96 7.38-0.2 16.51-1.1 22.19 4.31 6.9 8.4 3.44 22.19 5.15 32.8 0.25 3.19 0.65 5.47-1.35 6.96zm-19.8-22.19c-1.32-1.15-3.36 1.6-3.93 3.39-0.8 2.86-2.18 8.65 0.92 10.31 2.55 0.21 3.29-4.63 3.32-6.47l0.01-0.27c-0.09-1.63 0.33-5.46-0.32-6.96z"/>
		<path id="&lt;Path&gt;" class="s3" d="m782.67-1583.36c-0.63-8.65 1.74-18.97-4.73-25.66-4.99-4.7-14.14-3.72-17.98 1.87-1.37 1.81-2.15 3.38-2.72 3.48-0.31 0.08-0.54-0.2-0.77-0.74-0.93-3.46-3.39-6.44-7.29-6.59-3.58-0.35-8.29-0.26-10.66 0.5-0.85 0.28-1.61 0.72-2.04 1.45-1.12 1.89 0 5.76 0.17 9.99q0.47 9.85 0 19.7c-0.07 4.93-1.86 8.86 0.46 10.85 2.24 1.54 7.12 1.25 10.35 1.3 3.29-0.14 6.12 0.19 8.75-1.3 2.33-1.5 1.07-5.84 0.98-10.88-0.16-4.79-0.56-11.93 1.93-14.98 2.76-2.67 3.62 7.59 3.3 10.67v0.37c0.33 4.34-1.61 12.26 0.41 14.43 1.98 1.73 4.85 1.5 7.48 1.67 3.63-0.07 8.61 0.42 11.72-1.06 0.92-0.53 1.34-1.31 1.45-2.42 0.12-3.07-0.91-8.67-0.81-12.65z"/>
		<text id="Built on wheels, the mobile sauna can be placed ne" style="transform: matrix(1,0,0,1,1248.53,-1715.172)" >
			<tspan x="29.2" y="18.2" class="t14" dx="0 1 1 1 1 1 1 1 1 1 1 1 1 1 1 1 1" >BUILT ON WHEELS, </tspan>
			<tspan x="22.5" y="47" class="t14" dx="0 1 1 1 1 1 1 1 1 1 1 1 1 1 1 1 1" >THE MOBILE SAUNA </tspan>
			<tspan x="6.8" y="75.8" class="t14" dx="0 1 1 1 1 1 1 1 1 1 1 1 1 1 1 1 1 1 1" >CAN BE PLACED NEAR </tspan>
			<tspan x="6.3" y="104.6" class="t14" dx="0 1 1 1 1 1 1 1 1 1 1 1 1 1 1 1 1 1 1" >CLIFFS OVERLOOKING </tspan>
			<tspan x="14.8" y="133.4" class="t14" dx="0 1 1 1 1 1 1 1 1 1 1 1 1 1 1 1 1 1 1" >THE ATLANTIC, DEEP </tspan>
			<tspan x="9.9" y="162.2" class="t14" dx="0 1 1 1 1 1 1 1 1 1 1 1 1 1 1 1 1 1 1 1" >IN PINE FORESTS, OR </tspan>
			<tspan x="34.5" y="191" class="t14" dx="0 1 1 1 1 1 1 1 1 1 1 1 1 1 1 1" >BESIDE TRANQUIL </tspan>
			<tspan x="20" y="219.8" class="t14" dx="0 1 1 1 1 1 1 1 1 1 1 1 1 1 1 1 1 1 1" >RIVERS. ONE OF ITS </tspan>
			<tspan x="50" y="248.6" class="t14" dx="0 1 1 1 1 1 1 1 1 1 1 1 1 1" >MOST STRIKING </tspan>
			<tspan x="39.5" y="277.4" class="t14" dx="0 1 1 1 1 1 1 1 1 1 1 1 1 1 1 1" >FEATURES IS THE </tspan>
			<tspan x="26.7" y="306.2" class="t14" dx="0 1 1 1 1 1 1 1 1 1 1 1 1 1 1 1" >LARGE PANORAMIC </tspan>
			<tspan x="96.2" y="335" class="t14" dx="0 1 1 1 1 1 1 1" >WINDOW.
</tspan>
		</text>
		<text id="Fellix Bold
Displaay type–foundry 
" style="transform: matrix(1,0,0,1,1271.39,-1822.693)" >
			<tspan x="79.4" y="13.7" class="t15" dx="0 1 1 1 1 1 1 1 1 1 1 1" >FELLIX BOLD
</tspan>
			<tspan x="16" y="35.3" class="t15" dx="0 1 1 1 1 1 1 1 1 1 1 1 1" >DISPLAAY TYPE</tspan><tspan  y="35.3" class="t16" dx="0" >–</tspan><tspan  y="35.3" class="t15" dx="0 1 1 1 1 1 1 1 1" >FOUNDRY 
</tspan>
		</text>
		<text id="Inter : ± 50 - 200 Pt
" style="transform: matrix(1,0,0,1,1271.39,-1394.37)" >
			<tspan x="24.7" y="13.7" class="t16" dx="0 1 1 1 1 1 1 1 1 1 1 1 1 1 1 1 1 1 1 1 1 1" >INTER : ± 50 - 200 PT
</tspan>
		</text>
		<text id="Windows to nature
" style="transform: matrix(1,0,0,1,760,-1540.324)" >
			<tspan x="-99.1" y="0" class="t12" dx="0 3 3 3 3 3 3 3 3 3 3 3 3 3 3 3 3 3" >WINDOWS TO NATURE
</tspan>
		</text>
	</g>
</svg>